<svg width="44" height="30" viewBox="0 0 44 30" fill="none" xmlns="http://www.w3.org/2000/svg">
<path fill-rule="evenodd" clip-rule="evenodd" d="M0.125 15C0.125 14.5856 0.28962 14.1882 0.582646 13.8951C0.875671 13.6021 1.2731 13.4375 1.6875 13.4375H38.5406L28.7062 3.60625C28.4129 3.31285 28.248 2.91492 28.248 2.5C28.248 2.08507 28.4129 1.68714 28.7062 1.39375C28.9996 1.10035 29.3976 0.935524 29.8125 0.935524C30.2274 0.935524 30.6254 1.10035 30.9187 1.39375L43.4187 13.8937C43.5643 14.0389 43.6797 14.2113 43.7585 14.4011C43.8372 14.591 43.8778 14.7945 43.8778 15C43.8778 15.2055 43.8372 15.409 43.7585 15.5989C43.6797 15.7887 43.5643 15.9611 43.4187 16.1062L30.9187 28.6062C30.6254 28.8996 30.2274 29.0645 29.8125 29.0645C29.3976 29.0645 28.9996 28.8996 28.7062 28.6062C28.4129 28.3129 28.248 27.9149 28.248 27.5C28.248 27.0851 28.4129 26.6871 28.7062 26.3937L38.5406 16.5625H1.6875C1.2731 16.5625 0.875671 16.3979 0.582646 16.1049C0.28962 15.8118 0.125 15.4144 0.125 15Z" fill="black"/>
</svg>
