<svg width="45" height="30" viewBox="0 0 45 30" fill="none" xmlns="http://www.w3.org/2000/svg">
<path fill-rule="evenodd" clip-rule="evenodd" d="M44.3751 15C44.3751 14.5856 44.2105 14.1882 43.9175 13.8951C43.6244 13.6021 43.227 13.4375 42.8126 13.4375H5.95948L15.7939 3.60625C15.9391 3.46097 16.0544 3.28851 16.133 3.0987C16.2116 2.90889 16.2521 2.70545 16.2521 2.5C16.2521 2.29455 16.2116 2.09111 16.133 1.9013C16.0544 1.71149 15.9391 1.53902 15.7939 1.39375C15.6486 1.24847 15.4761 1.13323 15.2863 1.05461C15.0965 0.97599 14.8931 0.935524 14.6876 0.935524C14.4822 0.935524 14.2787 0.97599 14.0889 1.05461C13.8991 1.13323 13.7266 1.24847 13.5814 1.39375L1.08136 13.8937C0.935847 14.0389 0.820401 14.2113 0.741631 14.4011C0.662861 14.591 0.622314 14.7945 0.622314 15C0.622314 15.2055 0.662861 15.409 0.741631 15.5989C0.820401 15.7887 0.935847 15.9611 1.08136 16.1062L13.5814 28.6062C13.7266 28.7515 13.8991 28.8668 14.0889 28.9454C14.2787 29.024 14.4822 29.0645 14.6876 29.0645C14.8931 29.0645 15.0965 29.024 15.2863 28.9454C15.4761 28.8668 15.6486 28.7515 15.7939 28.6062C15.9391 28.461 16.0544 28.2885 16.133 28.0987C16.2116 27.9089 16.2521 27.7054 16.2521 27.5C16.2521 27.2945 16.2116 27.0911 16.133 26.9013C16.0544 26.7115 15.9391 26.539 15.7939 26.3937L5.95948 16.5625H42.8126C43.227 16.5625 43.6244 16.3979 43.9175 16.1049C44.2105 15.8118 44.3751 15.4144 44.3751 15Z" fill="black"/>
</svg>
