<svg width="20" height="19" viewBox="0 0 20 19" fill="none" xmlns="http://www.w3.org/2000/svg">
<path fill-rule="evenodd" clip-rule="evenodd" d="M18.25 3.25H14.5V2.5C14.5 1.25736 13.4926 0.25 12.25 0.25H7.75C6.50736 0.25 5.5 1.25736 5.5 2.5V3.25H1.75C0.921573 3.25 0.25 3.92157 0.25 4.75V16.75C0.25 17.5784 0.921573 18.25 1.75 18.25H18.25C19.0784 18.25 19.75 17.5784 19.75 16.75V4.75C19.75 3.92157 19.0784 3.25 18.25 3.25ZM7 2.5C7 2.08579 7.33579 1.75 7.75 1.75H12.25C12.6642 1.75 13 2.08579 13 2.5V3.25H7V2.5ZM13 4.75V16.75H7V4.75H13ZM1.75 4.75H5.5V16.75H1.75V4.75ZM18.25 16.75H14.5V4.75H18.25V16.75Z" fill="#121417"/>
</svg>
